<?xml version="1.0" encoding="utf-8"?>
<!-- Generator: Adobe Illustrator 17.0.0, SVG Export Plug-In . SVG Version: 6.00 Build 0)  -->
<!DOCTYPE svg PUBLIC "-//W3C//DTD SVG 1.1//EN" "http://www.w3.org/Graphics/SVG/1.1/DTD/svg11.dtd">
<svg version="1.1" id="图层_1" xmlns="http://www.w3.org/2000/svg" xmlns:xlink="http://www.w3.org/1999/xlink" x="0px" y="0px"
	 width="200px" height="200px" viewBox="0 0 200 200" enable-background="new 0 0 200 200" xml:space="preserve">
<g>
	<path fill="#22BD7A" d="M94.489,176.083c0-7.517-3.836-10.954-13.881-12.389l-10.092-0.887c-3.004-0.311-4.645-2.46-4.645-6.264
		c0-2.287,2.395-5.96,5.688-5.96c3.958,0,11.823,6.186,28.28,6.186c16.309,0,24.744-6.138,28.535-6.138
		c3.614,0,5.435,3.635,5.435,5.911c0,3.977-0.677,5.649-4.371,6.264l-9.635,0.887c-10.349,1.435-13.402,4.875-13.402,12.389"/>
	<path id="XMLID_4_" fill-rule="evenodd" clip-rule="evenodd" fill="#22BD7A" d="M117.421,94.964
		c-0.017,0.009-1.675,1.188-3.64,1.188c-7.294,0.233-10.32-3.981-10.424-4.139c-0.105-0.165-0.233-0.316-0.378-0.455l-0.135-0.126
		c-0.058-0.064-0.081-0.145-0.145-0.209c-0.489-0.481-1.139-0.707-1.793-0.694c-0.651-0.013-1.301,0.213-1.79,0.694
		c-0.064,0.064-0.087,0.145-0.141,0.209l-0.138,0.126c-0.131,0.122-0.262,0.287-0.364,0.429c-0.118,0.184-3.151,4.358-10.509,4.165
		c-1.907,0-3.565-1.185-3.565-1.185c-1.062-0.797-2.595-0.614-3.428,0.404c-0.826,1.014-0.637,2.483,0.424,3.28
		c0.297,0.22,3.014,2.173,6.492,2.173h0.004c0.232,0.007,0.458,0.01,0.681,0.01c6.39,0,10.309-2.571,12.335-4.45
		c2.019,1.879,5.922,4.45,12.275,4.45c0.219,0,0.448-0.003,0.671-0.01c3.552,0,6.269-1.953,6.565-2.173
		c1.065-0.797,1.254-2.263,0.428-3.28C120.022,94.353,118.485,94.17,117.421,94.964L117.421,94.964z"/>
	<path id="XMLID_3_" fill-rule="evenodd" clip-rule="evenodd" fill="#22BD7A" d="M87.311,85.006h0.054
		c3.229,1.863,7.061,2.838,11.496,2.9h0.954c0.03,0,0.06-0.004,0.094-0.004c0.034,0,0.067,0.004,0.098,0.004h0.954
		c4.438-0.061,8.267-1.037,11.493-2.9h0.058c3.777-2.451,5.584-5.482,5.422-9.099c-0.037-2.309-0.859-5.854-2.895-7.581
		c-1.729-1.586-6.643-2.538-13.269-2.57c-0.614-0.007-1.237,0.01-1.861,0.022c-0.62-0.013-1.243-0.029-1.861-0.022
		c-6.626,0.032-11.533,0.985-13.268,2.57c-2.036,1.727-2.862,5.272-2.896,7.581C81.727,79.524,83.536,82.555,87.311,85.006
		L87.311,85.006z"/>
	<path id="XMLID_2_" fill-rule="evenodd" clip-rule="evenodd" fill="#22BD7A" d="M62.698,55.788
		c-1.498,1.55-2.259,3.442-2.259,5.612c0,2.176,0.76,4.065,2.256,5.618c1.466,1.518,3.244,2.289,5.288,2.289
		c2.036,0,3.81-0.772,5.271-2.286c1.5-1.55,2.259-3.439,2.259-5.621c0-2.173-0.759-4.065-2.256-5.612
		C70.316,52.737,65.648,52.743,62.698,55.788L62.698,55.788z"/>
	<path id="XMLID_1_" fill-rule="evenodd" clip-rule="evenodd" fill="#22BD7A" d="M139.113,55.788
		c-2.939-3.055-7.63-3.032-10.549-0.004c-1.5,1.55-2.258,3.442-2.258,5.615c0,2.183,0.762,4.071,2.254,5.615
		c1.46,1.521,3.236,2.292,5.282,2.292c2.042,0,3.822-0.775,5.268-2.286c1.5-1.547,2.258-3.435,2.258-5.621
		C141.368,59.223,140.61,57.331,139.113,55.788L139.113,55.788z"/>
	<path fill="none" stroke="#31B075" stroke-miterlimit="10" d="M108.124,186.55"/>
	<path fill="none" stroke="#22BD7A" stroke-width="10" stroke-linecap="round" stroke-linejoin="round" stroke-miterlimit="10" d="
		M101.538,174.69c0,8.265,9.536,17.808,20.985,17.808h44.974c17.724,0,24.504-12.638,24.504-22.178
		c0-14.883-2.187-20.578-4.552-29.741c-2.498-9.677-7.672-21.895-8.736-28.884c-1.061-6.991-1.347-9.333-1.347-16.402l0.058-48.146
		c0,0-0.125-4.246,0-4.346c10.934-7.906,9.132-28.012-5.137-34.312c-13.893-6.175-24.826,3.539-28.538,8.584l-0.65,0.76
		C129.012,10.774,120.273,6.5,101.001,6.5c-18.909,0-31.168,4.632-45.456,11.333c0,0-0.428-0.697-0.524-0.793
		c-3.244-4.713-13.935-14.717-27.606-8.633c-13.839,6.108-15.461,25.755-4.601,33.138l-0.005,6.173l0.005,6.08V91.5
		c0,1.674,0.042,2.854,0,4.236c-0.224,7.707-0.305,9.801-0.985,16.958c-0.953,10.04-5.206,19.293-8.028,28.884
		C11.146,150.587,8,158.572,8,170.319c0,10.883,7.226,22.178,24.34,22.178l47.14,0.003c10.872,0,20.145-9.546,20.145-17.811"/>
</g>
</svg>
