<?xml version="1.0" encoding="utf-8"?>
<!-- Generator: Adobe Illustrator 17.0.0, SVG Export Plug-In . SVG Version: 6.00 Build 0)  -->
<!DOCTYPE svg PUBLIC "-//W3C//DTD SVG 1.1//EN" "http://www.w3.org/Graphics/SVG/1.1/DTD/svg11.dtd">
<svg version="1.1" id="图层_1" xmlns="http://www.w3.org/2000/svg" xmlns:xlink="http://www.w3.org/1999/xlink" x="0px" y="0px"
	 width="200px" height="200px" viewBox="0 0 200 200" enable-background="new 0 0 200 200" xml:space="preserve">
<g>
	<!--
	<path fill="#22BD7A" d="M94.489,176.083c0-7.517-3.836-10.954-13.881-12.389l-10.092-0.887c-3.004-0.311-4.645-2.46-4.645-6.264
		c0-2.287,2.395-5.96,5.688-5.96c3.958,0,11.823,6.186,28.28,6.186c16.309,0,24.744-6.138,28.535-6.138
		c3.614,0,5.435,3.635,5.435,5.911c0,3.977-0.677,5.649-4.371,6.264l-9.635,0.887c-10.349,1.435-13.402,4.875-13.402,12.389"/>
	-->

	<path fill="none" stroke="#31B075" stroke-miterlimit="10" d="M108.124,186.55"/>


	<path fill="none" stroke="#22BD7A" stroke-width="10" stroke-linecap="round" stroke-linejoin="round" stroke-miterlimit="10" d="
		M101.538,174.69c0,8.265,9.536,17.808,20.985,17.808h44.974c17.724,0,24.504-12.638,24.504-22.178
		c0-14.883-2.187-20.578-4.552-29.741c-2.498-9.677-7.672-21.895-8.736-28.884c-1.061-6.991-1.347-9.333-1.347-16.402l0.058-48.146
		c0,0-0.125-4.246,0-4.346c10.934-7.906,9.132-28.012-5.137-34.312c-13.893-6.175-24.826,3.539-28.538,8.584l-0.65,0.76
		C129.012,10.774,120.273,6.5,101.001,6.5c-18.909,0-31.168,4.632-45.456,11.333c0,0-0.428-0.697-0.524-0.793
		c-3.244-4.713-13.935-14.717-27.606-8.633c-13.839,6.108-15.461,25.755-4.601,33.138l-0.005,6.173l0.005,6.08V91.5
		c0,1.674,0.042,2.854,0,4.236c-0.224,7.707-0.305,9.801-0.985,16.958c-0.953,10.04-5.206,19.293-8.028,28.884
		C11.146,150.587,8,158.572,8,170.319c0,10.883,7.226,22.178,24.34,22.178l47.14,0.003c10.872,0,20.145-9.546,20.145-17.811"/>

</g>
</svg>
